<svg width="437" height="388" viewBox="0 0 437 388" fill="none" xmlns="http://www.w3.org/2000/svg">
<path d="M2.944 70V62.576H8.832V32.624H2.944V25.2H21.376C27.392 25.2 31.9573 26.736 35.072 29.808C38.2293 32.8373 39.808 37.36 39.808 43.376V51.824C39.808 57.84 38.2293 62.384 35.072 65.456C31.9573 68.4853 27.392 70 21.376 70H2.944ZM17.28 62.32H21.504C24.9173 62.32 27.4133 61.424 28.992 59.632C30.5707 57.84 31.36 55.3227 31.36 52.08V43.12C31.36 39.8347 30.5707 37.3173 28.992 35.568C27.4133 33.776 24.9173 32.88 21.504 32.88H17.28V62.32ZM61.569 70.896C58.4117 70.896 55.617 70.2347 53.185 68.912C50.7957 67.5467 48.9183 65.648 47.553 63.216C46.2303 60.7413 45.569 57.84 45.569 54.512V53.744C45.569 50.416 46.2303 47.536 47.553 45.104C48.8757 42.6293 50.7317 40.7307 53.121 39.408C55.5103 38.0427 58.2837 37.36 61.441 37.36C64.5557 37.36 67.265 38.064 69.569 39.472C71.873 40.8373 73.665 42.7573 74.945 45.232C76.225 47.664 76.865 50.5013 76.865 53.744V56.496H53.761C53.8463 58.672 54.657 60.4427 56.193 61.808C57.729 63.1733 59.6063 63.856 61.825 63.856C64.0863 63.856 65.7503 63.3653 66.817 62.384C67.8837 61.4027 68.6943 60.3147 69.249 59.12L75.841 62.576C75.2437 63.6853 74.369 64.9013 73.217 66.224C72.1077 67.504 70.6143 68.6133 68.737 69.552C66.8597 70.448 64.4703 70.896 61.569 70.896ZM53.825 50.48H68.673C68.5023 48.6453 67.7557 47.1733 66.433 46.064C65.153 44.9547 63.4677 44.4 61.377 44.4C59.201 44.4 57.473 44.9547 56.193 46.064C54.913 47.1733 54.1237 48.6453 53.825 50.48ZM82.328 70V60.4L99.736 45.936V44.912H82.968V38.256H108.568V47.856L91.16 62.32V63.344H109.08V70H82.328ZM130.507 70.896C127.349 70.896 124.555 70.2347 122.123 68.912C119.733 67.5467 117.856 65.648 116.491 63.216C115.168 60.7413 114.507 57.84 114.507 54.512V53.744C114.507 50.416 115.168 47.536 116.491 45.104C117.813 42.6293 119.669 40.7307 122.059 39.408C124.448 38.0427 127.221 37.36 130.378 37.36C133.493 37.36 136.203 38.064 138.507 39.472C140.811 40.8373 142.603 42.7573 143.882 45.232C145.163 47.664 145.803 50.5013 145.803 53.744V56.496H122.699C122.784 58.672 123.595 60.4427 125.131 61.808C126.667 63.1733 128.544 63.856 130.763 63.856C133.024 63.856 134.688 63.3653 135.755 62.384C136.821 61.4027 137.632 60.3147 138.187 59.12L144.779 62.576C144.181 63.6853 143.307 64.9013 142.155 66.224C141.045 67.504 139.552 68.6133 137.675 69.552C135.797 70.448 133.408 70.896 130.507 70.896ZM122.763 50.48H137.611C137.44 48.6453 136.693 47.1733 135.371 46.064C134.091 44.9547 132.405 44.4 130.315 44.4C128.139 44.4 126.411 44.9547 125.131 46.064C123.851 47.1733 123.061 48.6453 122.763 50.48ZM152.98 70V25.2H161.044V70H152.98ZM175.228 70V44.912H167.164V38.256H175.228V32.368C175.228 30.192 175.868 28.464 177.148 27.184C178.471 25.8613 180.177 25.2 182.268 25.2H190.588V31.856H185.084C183.889 31.856 183.292 32.496 183.292 33.776V38.256H191.612V44.912H183.292V70H175.228ZM209.593 70.896C207.075 70.896 204.707 70.2773 202.489 69.04C200.313 67.76 198.563 65.904 197.241 63.472C195.918 61.04 195.257 58.096 195.257 54.64V53.616C195.257 50.16 195.918 47.216 197.241 44.784C198.563 42.352 200.313 40.5173 202.489 39.28C204.665 38 207.033 37.36 209.593 37.36C211.513 37.36 213.113 37.5947 214.393 38.064C215.715 38.4907 216.782 39.0453 217.593 39.728C218.403 40.4107 219.022 41.136 219.449 41.904H220.601V25.2H228.665V70H220.729V66.16H219.577C218.851 67.3547 217.721 68.4427 216.185 69.424C214.691 70.4053 212.494 70.896 209.593 70.896ZM212.025 63.856C214.499 63.856 216.569 63.0667 218.233 61.488C219.897 59.8667 220.729 57.52 220.729 54.448V53.808C220.729 50.736 219.897 48.4107 218.233 46.832C216.611 45.2107 214.542 44.4 212.025 44.4C209.55 44.4 207.481 45.2107 205.817 46.832C204.153 48.4107 203.321 50.736 203.321 53.808V54.448C203.321 57.52 204.153 59.8667 205.817 61.488C207.481 63.0667 209.55 63.856 212.025 63.856ZM252.069 70.896C248.912 70.896 246.117 70.2347 243.685 68.912C241.296 67.5467 239.418 65.648 238.053 63.216C236.73 60.7413 236.069 57.84 236.069 54.512V53.744C236.069 50.416 236.73 47.536 238.053 45.104C239.376 42.6293 241.232 40.7307 243.621 39.408C246.01 38.0427 248.784 37.36 251.941 37.36C255.056 37.36 257.765 38.064 260.069 39.472C262.373 40.8373 264.165 42.7573 265.445 45.232C266.725 47.664 267.365 50.5013 267.365 53.744V56.496H244.261C244.346 58.672 245.157 60.4427 246.693 61.808C248.229 63.1733 250.106 63.856 252.325 63.856C254.586 63.856 256.25 63.3653 257.317 62.384C258.384 61.4027 259.194 60.3147 259.749 59.12L266.341 62.576C265.744 63.6853 264.869 64.9013 263.717 66.224C262.608 67.504 261.114 68.6133 259.237 69.552C257.36 70.448 254.97 70.896 252.069 70.896ZM244.325 50.48H259.173C259.002 48.6453 258.256 47.1733 256.933 46.064C255.653 44.9547 253.968 44.4 251.877 44.4C249.701 44.4 247.973 44.9547 246.693 46.064C245.413 47.1733 244.624 48.6453 244.325 50.48ZM18.944 166.896C15.7867 166.896 12.992 166.235 10.56 164.912C8.17067 163.547 6.29333 161.648 4.928 159.216C3.60533 156.741 2.944 153.84 2.944 150.512V149.744C2.944 146.416 3.60533 143.536 4.928 141.104C6.25067 138.629 8.10667 136.731 10.496 135.408C12.8853 134.043 15.6587 133.36 18.816 133.36C21.9307 133.36 24.64 134.064 26.944 135.472C29.248 136.837 31.04 138.757 32.32 141.232C33.6 143.664 34.24 146.501 34.24 149.744V152.496H11.136C11.2213 154.672 12.032 156.443 13.568 157.808C15.104 159.173 16.9813 159.856 19.2 159.856C21.4613 159.856 23.1253 159.365 24.192 158.384C25.2587 157.403 26.0693 156.315 26.624 155.12L33.216 158.576C32.6187 159.685 31.744 160.901 30.592 162.224C29.4827 163.504 27.9893 164.613 26.112 165.552C24.2347 166.448 21.8453 166.896 18.944 166.896ZM11.2 146.48H26.048C25.8773 144.645 25.1307 143.173 23.808 142.064C22.528 140.955 20.8427 140.4 18.752 140.4C16.576 140.4 14.848 140.955 13.568 142.064C12.288 143.173 11.4987 144.645 11.2 146.48ZM41.4175 166V134.256H49.3535V138.416H50.5055C51.0175 137.307 51.9775 136.261 53.3855 135.28C54.7935 134.256 56.9268 133.744 59.7855 133.744C62.2602 133.744 64.4148 134.32 66.2495 135.472C68.1268 136.581 69.5775 138.139 70.6015 140.144C71.6255 142.107 72.1375 144.411 72.1375 147.056V166H64.0735V147.696C64.0735 145.307 63.4762 143.515 62.2815 142.32C61.1295 141.125 59.4655 140.528 57.2895 140.528C54.8148 140.528 52.8948 141.36 51.5295 143.024C50.1642 144.645 49.4815 146.928 49.4815 149.872V166H41.4175ZM95.319 166.896C92.1617 166.896 89.367 166.235 86.935 164.912C84.5457 163.547 82.6683 161.648 81.303 159.216C79.9803 156.741 79.319 153.84 79.319 150.512V149.744C79.319 146.416 79.9803 143.536 81.303 141.104C82.6257 138.629 84.4817 136.731 86.871 135.408C89.2603 134.043 92.0337 133.36 95.191 133.36C98.3057 133.36 101.015 134.064 103.319 135.472C105.623 136.837 107.415 138.757 108.695 141.232C109.975 143.664 110.615 146.501 110.615 149.744V152.496H87.511C87.5963 154.672 88.407 156.443 89.943 157.808C91.479 159.173 93.3563 159.856 95.575 159.856C97.8363 159.856 99.5003 159.365 100.567 158.384C101.634 157.403 102.444 156.315 102.999 155.12L109.591 158.576C108.994 159.685 108.119 160.901 106.967 162.224C105.858 163.504 104.364 164.613 102.487 165.552C100.61 166.448 98.2203 166.896 95.319 166.896ZM87.575 146.48H102.423C102.252 144.645 101.506 143.173 100.183 142.064C98.903 140.955 97.2177 140.4 95.127 140.4C92.951 140.4 91.223 140.955 89.943 142.064C88.663 143.173 87.8737 144.645 87.575 146.48ZM117.793 166V134.256H125.729V137.84H126.881C127.35 136.56 128.118 135.621 129.185 135.024C130.294 134.427 131.574 134.128 133.025 134.128H136.865V141.296H132.897C130.849 141.296 129.163 141.851 127.841 142.96C126.518 144.027 125.857 145.691 125.857 147.952V166H117.793ZM140.507 150.256V149.232C140.507 145.904 141.168 143.067 142.491 140.72C143.813 138.331 145.563 136.517 147.739 135.28C149.957 134 152.368 133.36 154.971 133.36C157.872 133.36 160.069 133.872 161.563 134.896C163.056 135.92 164.144 136.987 164.827 138.096H165.979V134.256H173.915V171.632C173.915 173.808 173.275 175.536 171.995 176.816C170.715 178.139 169.008 178.8 166.875 178.8H145.627V171.76H164.059C165.253 171.76 165.851 171.12 165.851 169.84V161.584H164.699C164.272 162.267 163.675 162.971 162.907 163.696C162.139 164.379 161.115 164.955 159.835 165.424C158.555 165.893 156.933 166.128 154.971 166.128C152.368 166.128 149.957 165.509 147.739 164.272C145.563 162.992 143.813 161.179 142.491 158.832C141.168 156.443 140.507 153.584 140.507 150.256ZM157.275 159.088C159.749 159.088 161.819 158.299 163.483 156.72C165.147 155.141 165.979 152.923 165.979 150.064V149.424C165.979 146.523 165.147 144.304 163.483 142.768C161.861 141.189 159.792 140.4 157.275 140.4C154.8 140.4 152.731 141.189 151.067 142.768C149.403 144.304 148.571 146.523 148.571 149.424V150.064C148.571 152.923 149.403 155.141 151.067 156.72C152.731 158.299 154.8 159.088 157.275 159.088ZM182.855 166V134.256H190.919V166H182.855ZM186.887 130.544C185.436 130.544 184.199 130.075 183.175 129.136C182.194 128.197 181.703 126.96 181.703 125.424C181.703 123.888 182.194 122.651 183.175 121.712C184.199 120.773 185.436 120.304 186.887 120.304C188.38 120.304 189.618 120.773 190.599 121.712C191.58 122.651 192.071 123.888 192.071 125.424C192.071 126.96 191.58 128.197 190.599 129.136C189.618 130.075 188.38 130.544 186.887 130.544ZM214.319 166.896C211.162 166.896 208.367 166.235 205.935 164.912C203.546 163.547 201.668 161.648 200.303 159.216C198.98 156.741 198.319 153.84 198.319 150.512V149.744C198.319 146.416 198.98 143.536 200.303 141.104C201.626 138.629 203.482 136.731 205.871 135.408C208.26 134.043 211.034 133.36 214.191 133.36C217.306 133.36 220.015 134.064 222.319 135.472C224.623 136.837 226.415 138.757 227.695 141.232C228.975 143.664 229.615 146.501 229.615 149.744V152.496H206.511C206.596 154.672 207.407 156.443 208.943 157.808C210.479 159.173 212.356 159.856 214.575 159.856C216.836 159.856 218.5 159.365 219.567 158.384C220.634 157.403 221.444 156.315 221.999 155.12L228.591 158.576C227.994 159.685 227.119 160.901 225.967 162.224C224.858 163.504 223.364 164.613 221.487 165.552C219.61 166.448 217.22 166.896 214.319 166.896ZM206.575 146.48H221.423C221.252 144.645 220.506 143.173 219.183 142.064C217.903 140.955 216.218 140.4 214.127 140.4C211.951 140.4 210.223 140.955 208.943 142.064C207.663 143.173 206.874 144.645 206.575 146.48ZM236.994 175.408V171.056H239.49C241.452 171.056 242.434 170.075 242.434 168.112V166.064H241.345C239.639 166.064 238.21 165.552 237.058 164.528C235.948 163.504 235.394 162.203 235.394 160.624C235.394 158.917 235.948 157.531 237.058 156.464C238.21 155.397 239.639 154.864 241.345 154.864C243.095 154.864 244.524 155.419 245.634 156.528C246.743 157.595 247.298 159.045 247.298 160.88V168.24C247.298 173.019 244.908 175.408 240.13 175.408H236.994ZM19.712 262.896C16.64 262.896 13.8453 262.213 11.328 260.848C8.85333 259.44 6.86933 257.413 5.376 254.768C3.92533 252.08 3.2 248.816 3.2 244.976V234.224C3.2 228.464 4.82133 224.048 8.064 220.976C11.3067 217.861 15.7013 216.304 21.248 216.304C26.752 216.304 30.9973 217.776 33.984 220.72C37.0133 223.621 38.528 227.568 38.528 232.56V232.816H30.208V232.304C30.208 230.725 29.8667 229.296 29.184 228.016C28.544 226.736 27.5627 225.733 26.24 225.008C24.9173 224.24 23.2533 223.856 21.248 223.856C18.2613 223.856 15.9147 224.773 14.208 226.608C12.5013 228.443 11.648 230.939 11.648 234.096V245.104C11.648 248.219 12.5013 250.736 14.208 252.656C15.9147 254.533 18.304 255.472 21.376 255.472C24.448 255.472 26.688 254.661 28.096 253.04C29.504 251.419 30.208 249.371 30.208 246.896V246.256H19.584V239.088H38.528V262H30.72V257.712H29.568C29.2693 258.437 28.7787 259.205 28.096 260.016C27.456 260.827 26.4747 261.509 25.152 262.064C23.8293 262.619 22.016 262.896 19.712 262.896ZM61.319 262.896C58.1617 262.896 55.367 262.235 52.935 260.912C50.5457 259.547 48.6683 257.648 47.303 255.216C45.9803 252.741 45.319 249.84 45.319 246.512V245.744C45.319 242.416 45.9803 239.536 47.303 237.104C48.6257 234.629 50.4817 232.731 52.871 231.408C55.2603 230.043 58.0337 229.36 61.191 229.36C64.3057 229.36 67.015 230.064 69.319 231.472C71.623 232.837 73.415 234.757 74.695 237.232C75.975 239.664 76.615 242.501 76.615 245.744V248.496H53.511C53.5963 250.672 54.407 252.443 55.943 253.808C57.479 255.173 59.3563 255.856 61.575 255.856C63.8363 255.856 65.5003 255.365 66.567 254.384C67.6337 253.403 68.4443 252.315 68.999 251.12L75.591 254.576C74.9937 255.685 74.119 256.901 72.967 258.224C71.8577 259.504 70.3643 260.613 68.487 261.552C66.6097 262.448 64.2203 262.896 61.319 262.896ZM53.575 242.48H68.423C68.2523 240.645 67.5057 239.173 66.183 238.064C64.903 236.955 63.2177 236.4 61.127 236.4C58.951 236.4 57.223 236.955 55.943 238.064C54.663 239.173 53.8737 240.645 53.575 242.48ZM86.2275 262L81.7475 230.256H89.7475L92.5635 256.56H93.7155L97.8115 230.256H110.74L114.836 256.56H115.988L118.804 230.256H126.804L122.324 262H108.948L104.852 235.696H103.7L99.6035 262H86.2275ZM148.834 262.896C145.677 262.896 142.839 262.256 140.322 260.976C137.805 259.696 135.821 257.84 134.37 255.408C132.919 252.976 132.194 250.053 132.194 246.64V245.616C132.194 242.203 132.919 239.28 134.37 236.848C135.821 234.416 137.805 232.56 140.322 231.28C142.839 230 145.677 229.36 148.834 229.36C151.991 229.36 154.829 230 157.346 231.28C159.863 232.56 161.847 234.416 163.298 236.848C164.749 239.28 165.474 242.203 165.474 245.616V246.64C165.474 250.053 164.749 252.976 163.298 255.408C161.847 257.84 159.863 259.696 157.346 260.976C154.829 262.256 151.991 262.896 148.834 262.896ZM148.834 255.728C151.309 255.728 153.357 254.939 154.978 253.36C156.599 251.739 157.41 249.435 157.41 246.448V245.808C157.41 242.821 156.599 240.539 154.978 238.96C153.399 237.339 151.351 236.528 148.834 236.528C146.359 236.528 144.311 237.339 142.69 238.96C141.069 240.539 140.258 242.821 140.258 245.808V246.448C140.258 249.435 141.069 251.739 142.69 253.36C144.311 254.939 146.359 255.728 148.834 255.728ZM188.022 262.896C184.864 262.896 182.027 262.256 179.51 260.976C176.992 259.696 175.008 257.84 173.558 255.408C172.107 252.976 171.382 250.053 171.382 246.64V245.616C171.382 242.203 172.107 239.28 173.558 236.848C175.008 234.416 176.992 232.56 179.51 231.28C182.027 230 184.864 229.36 188.022 229.36C191.179 229.36 194.016 230 196.534 231.28C199.051 232.56 201.035 234.416 202.486 236.848C203.936 239.28 204.662 242.203 204.662 245.616V246.64C204.662 250.053 203.936 252.976 202.486 255.408C201.035 257.84 199.051 259.696 196.534 260.976C194.016 262.256 191.179 262.896 188.022 262.896ZM188.022 255.728C190.496 255.728 192.544 254.939 194.166 253.36C195.787 251.739 196.598 249.435 196.598 246.448V245.808C196.598 242.821 195.787 240.539 194.166 238.96C192.587 237.339 190.539 236.528 188.022 236.528C185.547 236.528 183.499 237.339 181.878 238.96C180.256 240.539 179.446 242.821 179.446 245.808V246.448C179.446 249.435 180.256 251.739 181.878 253.36C183.499 254.939 185.547 255.728 188.022 255.728ZM212.105 262V230.256H220.041V234.416H221.193C221.705 233.307 222.665 232.261 224.073 231.28C225.481 230.256 227.614 229.744 230.473 229.744C232.948 229.744 235.102 230.32 236.937 231.472C238.814 232.581 240.265 234.139 241.289 236.144C242.313 238.107 242.825 240.411 242.825 243.056V262H234.761V243.696C234.761 241.307 234.164 239.515 232.969 238.32C231.817 237.125 230.153 236.528 227.977 236.528C225.502 236.528 223.582 237.36 222.217 239.024C220.852 240.645 220.169 242.928 220.169 245.872V262H212.105ZM2.944 342.256V341.232C2.944 337.904 3.60533 335.067 4.928 332.72C6.25067 330.331 8 328.517 10.176 327.28C12.3947 326 14.8053 325.36 17.408 325.36C20.3093 325.36 22.5067 325.872 24 326.896C25.4933 327.92 26.5813 328.987 27.264 330.096H28.416V326.256H36.352V363.632C36.352 365.808 35.712 367.536 34.432 368.816C33.152 370.139 31.4453 370.8 29.312 370.8H8.064V363.76H26.496C27.6907 363.76 28.288 363.12 28.288 361.84V353.584H27.136C26.7093 354.267 26.112 354.971 25.344 355.696C24.576 356.379 23.552 356.955 22.272 357.424C20.992 357.893 19.3707 358.128 17.408 358.128C14.8053 358.128 12.3947 357.509 10.176 356.272C8 354.992 6.25067 353.179 4.928 350.832C3.60533 348.443 2.944 345.584 2.944 342.256ZM19.712 351.088C22.1867 351.088 24.256 350.299 25.92 348.72C27.584 347.141 28.416 344.923 28.416 342.064V341.424C28.416 338.523 27.584 336.304 25.92 334.768C24.2987 333.189 22.2293 332.4 19.712 332.4C17.2373 332.4 15.168 333.189 13.504 334.768C11.84 336.304 11.008 338.523 11.008 341.424V342.064C11.008 344.923 11.84 347.141 13.504 348.72C15.168 350.299 17.2373 351.088 19.712 351.088ZM60.3965 358.896C57.2392 358.896 54.4018 358.256 51.8845 356.976C49.3672 355.696 47.3832 353.84 45.9325 351.408C44.4818 348.976 43.7565 346.053 43.7565 342.64V341.616C43.7565 338.203 44.4818 335.28 45.9325 332.848C47.3832 330.416 49.3672 328.56 51.8845 327.28C54.4018 326 57.2392 325.36 60.3965 325.36C63.5538 325.36 66.3912 326 68.9085 327.28C71.4258 328.56 73.4098 330.416 74.8605 332.848C76.3112 335.28 77.0365 338.203 77.0365 341.616V342.64C77.0365 346.053 76.3112 348.976 74.8605 351.408C73.4098 353.84 71.4258 355.696 68.9085 356.976C66.3912 358.256 63.5538 358.896 60.3965 358.896ZM60.3965 351.728C62.8712 351.728 64.9192 350.939 66.5405 349.36C68.1618 347.739 68.9725 345.435 68.9725 342.448V341.808C68.9725 338.821 68.1618 336.539 66.5405 334.96C64.9618 333.339 62.9138 332.528 60.3965 332.528C57.9218 332.528 55.8738 333.339 54.2525 334.96C52.6312 336.539 51.8205 338.821 51.8205 341.808V342.448C51.8205 345.435 52.6312 347.739 54.2525 349.36C55.8738 350.939 57.9218 351.728 60.3965 351.728ZM98.944 358.896C95.7867 358.896 92.992 358.235 90.56 356.912C88.1707 355.547 86.2933 353.648 84.928 351.216C83.6053 348.741 82.944 345.84 82.944 342.512V341.744C82.944 338.416 83.6053 335.536 84.928 333.104C86.2507 330.629 88.1067 328.731 90.496 327.408C92.8853 326.043 95.6587 325.36 98.816 325.36C101.931 325.36 104.64 326.064 106.944 327.472C109.248 328.837 111.04 330.757 112.32 333.232C113.6 335.664 114.24 338.501 114.24 341.744V344.496H91.136C91.2213 346.672 92.032 348.443 93.568 349.808C95.104 351.173 96.9813 351.856 99.2 351.856C101.461 351.856 103.125 351.365 104.192 350.384C105.259 349.403 106.069 348.315 106.624 347.12L113.216 350.576C112.619 351.685 111.744 352.901 110.592 354.224C109.483 355.504 107.989 356.613 106.112 357.552C104.235 358.448 101.845 358.896 98.944 358.896ZM91.2 338.48H106.048C105.877 336.645 105.131 335.173 103.808 334.064C102.528 332.955 100.843 332.4 98.752 332.4C96.576 332.4 94.848 332.955 93.568 334.064C92.288 335.173 91.4987 336.645 91.2 338.48ZM134.218 358.896C131.7 358.896 129.332 358.277 127.114 357.04C124.938 355.76 123.188 353.904 121.866 351.472C120.543 349.04 119.882 346.096 119.882 342.64V341.616C119.882 338.16 120.543 335.216 121.866 332.784C123.188 330.352 124.938 328.517 127.114 327.28C129.29 326 131.658 325.36 134.218 325.36C136.138 325.36 137.738 325.595 139.018 326.064C140.34 326.491 141.407 327.045 142.218 327.728C143.028 328.411 143.647 329.136 144.074 329.904H145.226V313.2H153.29V358H145.354V354.16H144.202C143.476 355.355 142.346 356.443 140.81 357.424C139.316 358.405 137.119 358.896 134.218 358.896ZM136.65 351.856C139.124 351.856 141.194 351.067 142.858 349.488C144.522 347.867 145.354 345.52 145.354 342.448V341.808C145.354 338.736 144.522 336.411 142.858 334.832C141.236 333.211 139.167 332.4 136.65 332.4C134.175 332.4 132.106 333.211 130.442 334.832C128.778 336.411 127.946 338.736 127.946 341.808V342.448C127.946 345.52 128.778 347.867 130.442 349.488C132.106 351.067 134.175 351.856 136.65 351.856ZM162.23 358V313.2H170.294V337.968H171.446L181.942 326.256H192.438L177.782 341.616L192.95 358H182.582L171.446 345.392H170.294V358H162.23ZM211.522 358.896C208.364 358.896 205.527 358.256 203.01 356.976C200.492 355.696 198.508 353.84 197.058 351.408C195.607 348.976 194.882 346.053 194.882 342.64V341.616C194.882 338.203 195.607 335.28 197.058 332.848C198.508 330.416 200.492 328.56 203.01 327.28C205.527 326 208.364 325.36 211.522 325.36C214.679 325.36 217.516 326 220.034 327.28C222.551 328.56 224.535 330.416 225.986 332.848C227.436 335.28 228.162 338.203 228.162 341.616V342.64C228.162 346.053 227.436 348.976 225.986 351.408C224.535 353.84 222.551 355.696 220.034 356.976C217.516 358.256 214.679 358.896 211.522 358.896ZM211.522 351.728C213.996 351.728 216.044 350.939 217.666 349.36C219.287 347.739 220.098 345.435 220.098 342.448V341.808C220.098 338.821 219.287 336.539 217.666 334.96C216.087 333.339 214.039 332.528 211.522 332.528C209.047 332.528 206.999 333.339 205.378 334.96C203.756 336.539 202.946 338.821 202.946 341.808V342.448C202.946 345.435 203.756 347.739 205.378 349.36C206.999 350.939 209.047 351.728 211.522 351.728ZM235.605 370.8V326.256H243.541V330.096H244.693C245.418 328.859 246.549 327.771 248.085 326.832C249.621 325.851 251.818 325.36 254.677 325.36C257.237 325.36 259.605 326 261.781 327.28C263.957 328.517 265.706 330.352 267.029 332.784C268.352 335.216 269.013 338.16 269.013 341.616V342.64C269.013 346.096 268.352 349.04 267.029 351.472C265.706 353.904 263.957 355.76 261.781 357.04C259.605 358.277 257.237 358.896 254.677 358.896C252.757 358.896 251.136 358.661 249.813 358.192C248.533 357.765 247.488 357.211 246.677 356.528C245.909 355.803 245.29 355.077 244.821 354.352H243.669V370.8H235.605ZM252.245 351.856C254.762 351.856 256.832 351.067 258.453 349.488C260.117 347.867 260.949 345.52 260.949 342.448V341.808C260.949 338.736 260.117 336.411 258.453 334.832C256.789 333.211 254.72 332.4 252.245 332.4C249.77 332.4 247.701 333.211 246.037 334.832C244.373 336.411 243.541 338.736 243.541 341.808V342.448C243.541 345.52 244.373 347.867 246.037 349.488C247.701 351.067 249.77 351.856 252.245 351.856ZM290.882 358.896C287.724 358.896 284.93 358.235 282.498 356.912C280.108 355.547 278.231 353.648 276.866 351.216C275.543 348.741 274.882 345.84 274.882 342.512V341.744C274.882 338.416 275.543 335.536 276.866 333.104C278.188 330.629 280.044 328.731 282.434 327.408C284.823 326.043 287.596 325.36 290.753 325.36C293.868 325.36 296.578 326.064 298.882 327.472C301.186 328.837 302.978 330.757 304.257 333.232C305.538 335.664 306.178 338.501 306.178 341.744V344.496H283.074C283.159 346.672 283.97 348.443 285.506 349.808C287.042 351.173 288.919 351.856 291.138 351.856C293.399 351.856 295.063 351.365 296.13 350.384C297.196 349.403 298.007 348.315 298.562 347.12L305.154 350.576C304.556 351.685 303.682 352.901 302.53 354.224C301.42 355.504 299.927 356.613 298.05 357.552C296.172 358.448 293.783 358.896 290.882 358.896ZM283.138 338.48H297.986C297.815 336.645 297.068 335.173 295.746 334.064C294.466 332.955 292.78 332.4 290.69 332.4C288.514 332.4 286.786 332.955 285.506 334.064C284.226 335.173 283.436 336.645 283.138 338.48ZM313.355 358V326.256H321.291V329.84H322.443C322.912 328.56 323.68 327.621 324.747 327.024C325.856 326.427 327.136 326.128 328.587 326.128H332.427V333.296H328.459C326.411 333.296 324.726 333.851 323.403 334.96C322.08 336.027 321.419 337.691 321.419 339.952V358H313.355ZM338.661 358.896C336.954 358.896 335.504 358.341 334.309 357.232C333.157 356.08 332.581 354.608 332.581 352.816C332.581 351.024 333.157 349.573 334.309 348.464C335.504 347.312 336.954 346.736 338.661 346.736C340.41 346.736 341.861 347.312 343.013 348.464C344.165 349.573 344.741 351.024 344.741 352.816C344.741 354.608 344.165 356.08 343.013 357.232C341.861 358.341 340.41 358.896 338.661 358.896Z" fill="white"/>
<path opacity="0.1" d="M8.944 74V66.576H14.832V36.624H8.944V29.2H27.376C33.392 29.2 37.9573 30.736 41.072 33.808C44.2293 36.8373 45.808 41.36 45.808 47.376V55.824C45.808 61.84 44.2293 66.384 41.072 69.456C37.9573 72.4853 33.392 74 27.376 74H8.944ZM23.28 66.32H27.504C30.9173 66.32 33.4133 65.424 34.992 63.632C36.5707 61.84 37.36 59.3227 37.36 56.08V47.12C37.36 43.8347 36.5707 41.3173 34.992 39.568C33.4133 37.776 30.9173 36.88 27.504 36.88H23.28V66.32ZM67.569 74.896C64.4117 74.896 61.617 74.2347 59.185 72.912C56.7957 71.5467 54.9183 69.648 53.553 67.216C52.2303 64.7413 51.569 61.84 51.569 58.512V57.744C51.569 54.416 52.2303 51.536 53.553 49.104C54.8757 46.6293 56.7317 44.7307 59.121 43.408C61.5103 42.0427 64.2837 41.36 67.441 41.36C70.5557 41.36 73.265 42.064 75.569 43.472C77.873 44.8373 79.665 46.7573 80.945 49.232C82.225 51.664 82.865 54.5013 82.865 57.744V60.496H59.761C59.8463 62.672 60.657 64.4427 62.193 65.808C63.729 67.1733 65.6063 67.856 67.825 67.856C70.0863 67.856 71.7503 67.3653 72.817 66.384C73.8837 65.4027 74.6943 64.3147 75.249 63.12L81.841 66.576C81.2437 67.6853 80.369 68.9013 79.217 70.224C78.1077 71.504 76.6143 72.6133 74.737 73.552C72.8597 74.448 70.4703 74.896 67.569 74.896ZM59.825 54.48H74.673C74.5023 52.6453 73.7557 51.1733 72.433 50.064C71.153 48.9547 69.4677 48.4 67.377 48.4C65.201 48.4 63.473 48.9547 62.193 50.064C60.913 51.1733 60.1237 52.6453 59.825 54.48ZM88.328 74V64.4L105.736 49.936V48.912H88.968V42.256H114.568V51.856L97.16 66.32V67.344H115.08V74H88.328ZM136.507 74.896C133.349 74.896 130.555 74.2347 128.123 72.912C125.733 71.5467 123.856 69.648 122.491 67.216C121.168 64.7413 120.507 61.84 120.507 58.512V57.744C120.507 54.416 121.168 51.536 122.491 49.104C123.813 46.6293 125.669 44.7307 128.059 43.408C130.448 42.0427 133.221 41.36 136.378 41.36C139.493 41.36 142.203 42.064 144.507 43.472C146.811 44.8373 148.603 46.7573 149.882 49.232C151.163 51.664 151.803 54.5013 151.803 57.744V60.496H128.699C128.784 62.672 129.595 64.4427 131.131 65.808C132.667 67.1733 134.544 67.856 136.763 67.856C139.024 67.856 140.688 67.3653 141.755 66.384C142.821 65.4027 143.632 64.3147 144.187 63.12L150.779 66.576C150.181 67.6853 149.307 68.9013 148.155 70.224C147.045 71.504 145.552 72.6133 143.675 73.552C141.797 74.448 139.408 74.896 136.507 74.896ZM128.763 54.48H143.611C143.44 52.6453 142.693 51.1733 141.371 50.064C140.091 48.9547 138.405 48.4 136.315 48.4C134.139 48.4 132.411 48.9547 131.131 50.064C129.851 51.1733 129.061 52.6453 128.763 54.48ZM158.98 74V29.2H167.044V74H158.98ZM181.228 74V48.912H173.164V42.256H181.228V36.368C181.228 34.192 181.868 32.464 183.148 31.184C184.471 29.8613 186.177 29.2 188.268 29.2H196.588V35.856H191.084C189.889 35.856 189.292 36.496 189.292 37.776V42.256H197.612V48.912H189.292V74H181.228ZM215.593 74.896C213.075 74.896 210.707 74.2773 208.489 73.04C206.313 71.76 204.563 69.904 203.241 67.472C201.918 65.04 201.257 62.096 201.257 58.64V57.616C201.257 54.16 201.918 51.216 203.241 48.784C204.563 46.352 206.313 44.5173 208.489 43.28C210.665 42 213.033 41.36 215.593 41.36C217.513 41.36 219.113 41.5947 220.393 42.064C221.715 42.4907 222.782 43.0453 223.593 43.728C224.403 44.4107 225.022 45.136 225.449 45.904H226.601V29.2H234.665V74H226.729V70.16H225.577C224.851 71.3547 223.721 72.4427 222.185 73.424C220.691 74.4053 218.494 74.896 215.593 74.896ZM218.025 67.856C220.499 67.856 222.569 67.0667 224.233 65.488C225.897 63.8667 226.729 61.52 226.729 58.448V57.808C226.729 54.736 225.897 52.4107 224.233 50.832C222.611 49.2107 220.542 48.4 218.025 48.4C215.55 48.4 213.481 49.2107 211.817 50.832C210.153 52.4107 209.321 54.736 209.321 57.808V58.448C209.321 61.52 210.153 63.8667 211.817 65.488C213.481 67.0667 215.55 67.856 218.025 67.856ZM258.069 74.896C254.912 74.896 252.117 74.2347 249.685 72.912C247.296 71.5467 245.418 69.648 244.053 67.216C242.73 64.7413 242.069 61.84 242.069 58.512V57.744C242.069 54.416 242.73 51.536 244.053 49.104C245.376 46.6293 247.232 44.7307 249.621 43.408C252.01 42.0427 254.784 41.36 257.941 41.36C261.056 41.36 263.765 42.064 266.069 43.472C268.373 44.8373 270.165 46.7573 271.445 49.232C272.725 51.664 273.365 54.5013 273.365 57.744V60.496H250.261C250.346 62.672 251.157 64.4427 252.693 65.808C254.229 67.1733 256.106 67.856 258.325 67.856C260.586 67.856 262.25 67.3653 263.317 66.384C264.384 65.4027 265.194 64.3147 265.749 63.12L272.341 66.576C271.744 67.6853 270.869 68.9013 269.717 70.224C268.608 71.504 267.114 72.6133 265.237 73.552C263.36 74.448 260.97 74.896 258.069 74.896ZM250.325 54.48H265.173C265.002 52.6453 264.256 51.1733 262.933 50.064C261.653 48.9547 259.968 48.4 257.877 48.4C255.701 48.4 253.973 48.9547 252.693 50.064C251.413 51.1733 250.624 52.6453 250.325 54.48ZM24.944 170.896C21.7867 170.896 18.992 170.235 16.56 168.912C14.1707 167.547 12.2933 165.648 10.928 163.216C9.60533 160.741 8.944 157.84 8.944 154.512V153.744C8.944 150.416 9.60533 147.536 10.928 145.104C12.2507 142.629 14.1067 140.731 16.496 139.408C18.8853 138.043 21.6587 137.36 24.816 137.36C27.9307 137.36 30.64 138.064 32.944 139.472C35.248 140.837 37.04 142.757 38.32 145.232C39.6 147.664 40.24 150.501 40.24 153.744V156.496H17.136C17.2213 158.672 18.032 160.443 19.568 161.808C21.104 163.173 22.9813 163.856 25.2 163.856C27.4613 163.856 29.1253 163.365 30.192 162.384C31.2587 161.403 32.0693 160.315 32.624 159.12L39.216 162.576C38.6187 163.685 37.744 164.901 36.592 166.224C35.4827 167.504 33.9893 168.613 32.112 169.552C30.2347 170.448 27.8453 170.896 24.944 170.896ZM17.2 150.48H32.048C31.8773 148.645 31.1307 147.173 29.808 146.064C28.528 144.955 26.8427 144.4 24.752 144.4C22.576 144.4 20.848 144.955 19.568 146.064C18.288 147.173 17.4987 148.645 17.2 150.48ZM47.4175 170V138.256H55.3535V142.416H56.5055C57.0175 141.307 57.9775 140.261 59.3855 139.28C60.7935 138.256 62.9268 137.744 65.7855 137.744C68.2602 137.744 70.4148 138.32 72.2495 139.472C74.1268 140.581 75.5775 142.139 76.6015 144.144C77.6255 146.107 78.1375 148.411 78.1375 151.056V170H70.0735V151.696C70.0735 149.307 69.4762 147.515 68.2815 146.32C67.1295 145.125 65.4655 144.528 63.2895 144.528C60.8148 144.528 58.8948 145.36 57.5295 147.024C56.1642 148.645 55.4815 150.928 55.4815 153.872V170H47.4175ZM101.319 170.896C98.1617 170.896 95.367 170.235 92.935 168.912C90.5457 167.547 88.6683 165.648 87.303 163.216C85.9803 160.741 85.319 157.84 85.319 154.512V153.744C85.319 150.416 85.9803 147.536 87.303 145.104C88.6257 142.629 90.4817 140.731 92.871 139.408C95.2603 138.043 98.0337 137.36 101.191 137.36C104.306 137.36 107.015 138.064 109.319 139.472C111.623 140.837 113.415 142.757 114.695 145.232C115.975 147.664 116.615 150.501 116.615 153.744V156.496H93.511C93.5963 158.672 94.407 160.443 95.943 161.808C97.479 163.173 99.3563 163.856 101.575 163.856C103.836 163.856 105.5 163.365 106.567 162.384C107.634 161.403 108.444 160.315 108.999 159.12L115.591 162.576C114.994 163.685 114.119 164.901 112.967 166.224C111.858 167.504 110.364 168.613 108.487 169.552C106.61 170.448 104.22 170.896 101.319 170.896ZM93.575 150.48H108.423C108.252 148.645 107.506 147.173 106.183 146.064C104.903 144.955 103.218 144.4 101.127 144.4C98.951 144.4 97.223 144.955 95.943 146.064C94.663 147.173 93.8737 148.645 93.575 150.48ZM123.793 170V138.256H131.729V141.84H132.881C133.35 140.56 134.118 139.621 135.185 139.024C136.294 138.427 137.574 138.128 139.025 138.128H142.865V145.296H138.897C136.849 145.296 135.163 145.851 133.841 146.96C132.518 148.027 131.857 149.691 131.857 151.952V170H123.793ZM146.507 154.256V153.232C146.507 149.904 147.168 147.067 148.491 144.72C149.813 142.331 151.563 140.517 153.739 139.28C155.957 138 158.368 137.36 160.971 137.36C163.872 137.36 166.069 137.872 167.563 138.896C169.056 139.92 170.144 140.987 170.827 142.096H171.979V138.256H179.915V175.632C179.915 177.808 179.275 179.536 177.995 180.816C176.715 182.139 175.008 182.8 172.875 182.8H151.627V175.76H170.059C171.253 175.76 171.851 175.12 171.851 173.84V165.584H170.699C170.272 166.267 169.675 166.971 168.907 167.696C168.139 168.379 167.115 168.955 165.835 169.424C164.555 169.893 162.933 170.128 160.971 170.128C158.368 170.128 155.957 169.509 153.739 168.272C151.563 166.992 149.813 165.179 148.491 162.832C147.168 160.443 146.507 157.584 146.507 154.256ZM163.275 163.088C165.749 163.088 167.819 162.299 169.483 160.72C171.147 159.141 171.979 156.923 171.979 154.064V153.424C171.979 150.523 171.147 148.304 169.483 146.768C167.861 145.189 165.792 144.4 163.275 144.4C160.8 144.4 158.731 145.189 157.067 146.768C155.403 148.304 154.571 150.523 154.571 153.424V154.064C154.571 156.923 155.403 159.141 157.067 160.72C158.731 162.299 160.8 163.088 163.275 163.088ZM188.855 170V138.256H196.919V170H188.855ZM192.887 134.544C191.436 134.544 190.199 134.075 189.175 133.136C188.194 132.197 187.703 130.96 187.703 129.424C187.703 127.888 188.194 126.651 189.175 125.712C190.199 124.773 191.436 124.304 192.887 124.304C194.38 124.304 195.618 124.773 196.599 125.712C197.58 126.651 198.071 127.888 198.071 129.424C198.071 130.96 197.58 132.197 196.599 133.136C195.618 134.075 194.38 134.544 192.887 134.544ZM220.319 170.896C217.162 170.896 214.367 170.235 211.935 168.912C209.546 167.547 207.668 165.648 206.303 163.216C204.98 160.741 204.319 157.84 204.319 154.512V153.744C204.319 150.416 204.98 147.536 206.303 145.104C207.626 142.629 209.482 140.731 211.871 139.408C214.26 138.043 217.034 137.36 220.191 137.36C223.306 137.36 226.015 138.064 228.319 139.472C230.623 140.837 232.415 142.757 233.695 145.232C234.975 147.664 235.615 150.501 235.615 153.744V156.496H212.511C212.596 158.672 213.407 160.443 214.943 161.808C216.479 163.173 218.356 163.856 220.575 163.856C222.836 163.856 224.5 163.365 225.567 162.384C226.634 161.403 227.444 160.315 227.999 159.12L234.591 162.576C233.994 163.685 233.119 164.901 231.967 166.224C230.858 167.504 229.364 168.613 227.487 169.552C225.61 170.448 223.22 170.896 220.319 170.896ZM212.575 150.48H227.423C227.252 148.645 226.506 147.173 225.183 146.064C223.903 144.955 222.218 144.4 220.127 144.4C217.951 144.4 216.223 144.955 214.943 146.064C213.663 147.173 212.874 148.645 212.575 150.48ZM242.994 179.408V175.056H245.49C247.452 175.056 248.434 174.075 248.434 172.112V170.064H247.345C245.639 170.064 244.21 169.552 243.058 168.528C241.948 167.504 241.394 166.203 241.394 164.624C241.394 162.917 241.948 161.531 243.058 160.464C244.21 159.397 245.639 158.864 247.345 158.864C249.095 158.864 250.524 159.419 251.634 160.528C252.743 161.595 253.298 163.045 253.298 164.88V172.24C253.298 177.019 250.908 179.408 246.13 179.408H242.994ZM25.712 266.896C22.64 266.896 19.8453 266.213 17.328 264.848C14.8533 263.44 12.8693 261.413 11.376 258.768C9.92533 256.08 9.2 252.816 9.2 248.976V238.224C9.2 232.464 10.8213 228.048 14.064 224.976C17.3067 221.861 21.7013 220.304 27.248 220.304C32.752 220.304 36.9973 221.776 39.984 224.72C43.0133 227.621 44.528 231.568 44.528 236.56V236.816H36.208V236.304C36.208 234.725 35.8667 233.296 35.184 232.016C34.544 230.736 33.5627 229.733 32.24 229.008C30.9173 228.24 29.2533 227.856 27.248 227.856C24.2613 227.856 21.9147 228.773 20.208 230.608C18.5013 232.443 17.648 234.939 17.648 238.096V249.104C17.648 252.219 18.5013 254.736 20.208 256.656C21.9147 258.533 24.304 259.472 27.376 259.472C30.448 259.472 32.688 258.661 34.096 257.04C35.504 255.419 36.208 253.371 36.208 250.896V250.256H25.584V243.088H44.528V266H36.72V261.712H35.568C35.2693 262.437 34.7787 263.205 34.096 264.016C33.456 264.827 32.4747 265.509 31.152 266.064C29.8293 266.619 28.016 266.896 25.712 266.896ZM67.319 266.896C64.1617 266.896 61.367 266.235 58.935 264.912C56.5457 263.547 54.6683 261.648 53.303 259.216C51.9803 256.741 51.319 253.84 51.319 250.512V249.744C51.319 246.416 51.9803 243.536 53.303 241.104C54.6257 238.629 56.4817 236.731 58.871 235.408C61.2603 234.043 64.0337 233.36 67.191 233.36C70.3057 233.36 73.015 234.064 75.319 235.472C77.623 236.837 79.415 238.757 80.695 241.232C81.975 243.664 82.615 246.501 82.615 249.744V252.496H59.511C59.5963 254.672 60.407 256.443 61.943 257.808C63.479 259.173 65.3563 259.856 67.575 259.856C69.8363 259.856 71.5003 259.365 72.567 258.384C73.6337 257.403 74.4443 256.315 74.999 255.12L81.591 258.576C80.9937 259.685 80.119 260.901 78.967 262.224C77.8577 263.504 76.3643 264.613 74.487 265.552C72.6097 266.448 70.2203 266.896 67.319 266.896ZM59.575 246.48H74.423C74.2523 244.645 73.5057 243.173 72.183 242.064C70.903 240.955 69.2177 240.4 67.127 240.4C64.951 240.4 63.223 240.955 61.943 242.064C60.663 243.173 59.8737 244.645 59.575 246.48ZM92.2275 266L87.7475 234.256H95.7475L98.5635 260.56H99.7155L103.812 234.256H116.74L120.836 260.56H121.988L124.804 234.256H132.804L128.324 266H114.948L110.852 239.696H109.7L105.604 266H92.2275ZM154.834 266.896C151.677 266.896 148.839 266.256 146.322 264.976C143.805 263.696 141.821 261.84 140.37 259.408C138.919 256.976 138.194 254.053 138.194 250.64V249.616C138.194 246.203 138.919 243.28 140.37 240.848C141.821 238.416 143.805 236.56 146.322 235.28C148.839 234 151.677 233.36 154.834 233.36C157.991 233.36 160.829 234 163.346 235.28C165.863 236.56 167.847 238.416 169.298 240.848C170.749 243.28 171.474 246.203 171.474 249.616V250.64C171.474 254.053 170.749 256.976 169.298 259.408C167.847 261.84 165.863 263.696 163.346 264.976C160.829 266.256 157.991 266.896 154.834 266.896ZM154.834 259.728C157.309 259.728 159.357 258.939 160.978 257.36C162.599 255.739 163.41 253.435 163.41 250.448V249.808C163.41 246.821 162.599 244.539 160.978 242.96C159.399 241.339 157.351 240.528 154.834 240.528C152.359 240.528 150.311 241.339 148.69 242.96C147.069 244.539 146.258 246.821 146.258 249.808V250.448C146.258 253.435 147.069 255.739 148.69 257.36C150.311 258.939 152.359 259.728 154.834 259.728ZM194.022 266.896C190.864 266.896 188.027 266.256 185.51 264.976C182.992 263.696 181.008 261.84 179.558 259.408C178.107 256.976 177.382 254.053 177.382 250.64V249.616C177.382 246.203 178.107 243.28 179.558 240.848C181.008 238.416 182.992 236.56 185.51 235.28C188.027 234 190.864 233.36 194.022 233.36C197.179 233.36 200.016 234 202.534 235.28C205.051 236.56 207.035 238.416 208.486 240.848C209.936 243.28 210.662 246.203 210.662 249.616V250.64C210.662 254.053 209.936 256.976 208.486 259.408C207.035 261.84 205.051 263.696 202.534 264.976C200.016 266.256 197.179 266.896 194.022 266.896ZM194.022 259.728C196.496 259.728 198.544 258.939 200.166 257.36C201.787 255.739 202.598 253.435 202.598 250.448V249.808C202.598 246.821 201.787 244.539 200.166 242.96C198.587 241.339 196.539 240.528 194.022 240.528C191.547 240.528 189.499 241.339 187.878 242.96C186.256 244.539 185.446 246.821 185.446 249.808V250.448C185.446 253.435 186.256 255.739 187.878 257.36C189.499 258.939 191.547 259.728 194.022 259.728ZM218.105 266V234.256H226.041V238.416H227.193C227.705 237.307 228.665 236.261 230.073 235.28C231.481 234.256 233.614 233.744 236.473 233.744C238.948 233.744 241.102 234.32 242.937 235.472C244.814 236.581 246.265 238.139 247.289 240.144C248.313 242.107 248.825 244.411 248.825 247.056V266H240.761V247.696C240.761 245.307 240.164 243.515 238.969 242.32C237.817 241.125 236.153 240.528 233.977 240.528C231.502 240.528 229.582 241.36 228.217 243.024C226.852 244.645 226.169 246.928 226.169 249.872V266H218.105ZM8.944 346.256V345.232C8.944 341.904 9.60533 339.067 10.928 336.72C12.2507 334.331 14 332.517 16.176 331.28C18.3947 330 20.8053 329.36 23.408 329.36C26.3093 329.36 28.5067 329.872 30 330.896C31.4933 331.92 32.5813 332.987 33.264 334.096H34.416V330.256H42.352V367.632C42.352 369.808 41.712 371.536 40.432 372.816C39.152 374.139 37.4453 374.8 35.312 374.8H14.064V367.76H32.496C33.6907 367.76 34.288 367.12 34.288 365.84V357.584H33.136C32.7093 358.267 32.112 358.971 31.344 359.696C30.576 360.379 29.552 360.955 28.272 361.424C26.992 361.893 25.3707 362.128 23.408 362.128C20.8053 362.128 18.3947 361.509 16.176 360.272C14 358.992 12.2507 357.179 10.928 354.832C9.60533 352.443 8.944 349.584 8.944 346.256ZM25.712 355.088C28.1867 355.088 30.256 354.299 31.92 352.72C33.584 351.141 34.416 348.923 34.416 346.064V345.424C34.416 342.523 33.584 340.304 31.92 338.768C30.2987 337.189 28.2293 336.4 25.712 336.4C23.2373 336.4 21.168 337.189 19.504 338.768C17.84 340.304 17.008 342.523 17.008 345.424V346.064C17.008 348.923 17.84 351.141 19.504 352.72C21.168 354.299 23.2373 355.088 25.712 355.088ZM66.3965 362.896C63.2392 362.896 60.4018 362.256 57.8845 360.976C55.3672 359.696 53.3832 357.84 51.9325 355.408C50.4818 352.976 49.7565 350.053 49.7565 346.64V345.616C49.7565 342.203 50.4818 339.28 51.9325 336.848C53.3832 334.416 55.3672 332.56 57.8845 331.28C60.4018 330 63.2392 329.36 66.3965 329.36C69.5538 329.36 72.3912 330 74.9085 331.28C77.4258 332.56 79.4098 334.416 80.8605 336.848C82.3112 339.28 83.0365 342.203 83.0365 345.616V346.64C83.0365 350.053 82.3112 352.976 80.8605 355.408C79.4098 357.84 77.4258 359.696 74.9085 360.976C72.3912 362.256 69.5538 362.896 66.3965 362.896ZM66.3965 355.728C68.8712 355.728 70.9192 354.939 72.5405 353.36C74.1618 351.739 74.9725 349.435 74.9725 346.448V345.808C74.9725 342.821 74.1618 340.539 72.5405 338.96C70.9618 337.339 68.9138 336.528 66.3965 336.528C63.9218 336.528 61.8738 337.339 60.2525 338.96C58.6312 340.539 57.8205 342.821 57.8205 345.808V346.448C57.8205 349.435 58.6312 351.739 60.2525 353.36C61.8738 354.939 63.9218 355.728 66.3965 355.728ZM104.944 362.896C101.787 362.896 98.992 362.235 96.56 360.912C94.1707 359.547 92.2933 357.648 90.928 355.216C89.6053 352.741 88.944 349.84 88.944 346.512V345.744C88.944 342.416 89.6053 339.536 90.928 337.104C92.2507 334.629 94.1067 332.731 96.496 331.408C98.8853 330.043 101.659 329.36 104.816 329.36C107.931 329.36 110.64 330.064 112.944 331.472C115.248 332.837 117.04 334.757 118.32 337.232C119.6 339.664 120.24 342.501 120.24 345.744V348.496H97.136C97.2213 350.672 98.032 352.443 99.568 353.808C101.104 355.173 102.981 355.856 105.2 355.856C107.461 355.856 109.125 355.365 110.192 354.384C111.259 353.403 112.069 352.315 112.624 351.12L119.216 354.576C118.619 355.685 117.744 356.901 116.592 358.224C115.483 359.504 113.989 360.613 112.112 361.552C110.235 362.448 107.845 362.896 104.944 362.896ZM97.2 342.48H112.048C111.877 340.645 111.131 339.173 109.808 338.064C108.528 336.955 106.843 336.4 104.752 336.4C102.576 336.4 100.848 336.955 99.568 338.064C98.288 339.173 97.4987 340.645 97.2 342.48ZM140.218 362.896C137.7 362.896 135.332 362.277 133.114 361.04C130.938 359.76 129.188 357.904 127.866 355.472C126.543 353.04 125.882 350.096 125.882 346.64V345.616C125.882 342.16 126.543 339.216 127.866 336.784C129.188 334.352 130.938 332.517 133.114 331.28C135.29 330 137.658 329.36 140.218 329.36C142.138 329.36 143.738 329.595 145.018 330.064C146.34 330.491 147.407 331.045 148.218 331.728C149.028 332.411 149.647 333.136 150.074 333.904H151.226V317.2H159.29V362H151.354V358.16H150.202C149.476 359.355 148.346 360.443 146.81 361.424C145.316 362.405 143.119 362.896 140.218 362.896ZM142.65 355.856C145.124 355.856 147.194 355.067 148.858 353.488C150.522 351.867 151.354 349.52 151.354 346.448V345.808C151.354 342.736 150.522 340.411 148.858 338.832C147.236 337.211 145.167 336.4 142.65 336.4C140.175 336.4 138.106 337.211 136.442 338.832C134.778 340.411 133.946 342.736 133.946 345.808V346.448C133.946 349.52 134.778 351.867 136.442 353.488C138.106 355.067 140.175 355.856 142.65 355.856ZM168.23 362V317.2H176.294V341.968H177.446L187.942 330.256H198.438L183.782 345.616L198.95 362H188.582L177.446 349.392H176.294V362H168.23ZM217.522 362.896C214.364 362.896 211.527 362.256 209.01 360.976C206.492 359.696 204.508 357.84 203.058 355.408C201.607 352.976 200.882 350.053 200.882 346.64V345.616C200.882 342.203 201.607 339.28 203.058 336.848C204.508 334.416 206.492 332.56 209.01 331.28C211.527 330 214.364 329.36 217.522 329.36C220.679 329.36 223.516 330 226.034 331.28C228.551 332.56 230.535 334.416 231.986 336.848C233.436 339.28 234.162 342.203 234.162 345.616V346.64C234.162 350.053 233.436 352.976 231.986 355.408C230.535 357.84 228.551 359.696 226.034 360.976C223.516 362.256 220.679 362.896 217.522 362.896ZM217.522 355.728C219.996 355.728 222.044 354.939 223.666 353.36C225.287 351.739 226.098 349.435 226.098 346.448V345.808C226.098 342.821 225.287 340.539 223.666 338.96C222.087 337.339 220.039 336.528 217.522 336.528C215.047 336.528 212.999 337.339 211.378 338.96C209.756 340.539 208.946 342.821 208.946 345.808V346.448C208.946 349.435 209.756 351.739 211.378 353.36C212.999 354.939 215.047 355.728 217.522 355.728ZM241.605 374.8V330.256H249.541V334.096H250.693C251.418 332.859 252.549 331.771 254.085 330.832C255.621 329.851 257.818 329.36 260.677 329.36C263.237 329.36 265.605 330 267.781 331.28C269.957 332.517 271.706 334.352 273.029 336.784C274.352 339.216 275.013 342.16 275.013 345.616V346.64C275.013 350.096 274.352 353.04 273.029 355.472C271.706 357.904 269.957 359.76 267.781 361.04C265.605 362.277 263.237 362.896 260.677 362.896C258.757 362.896 257.136 362.661 255.813 362.192C254.533 361.765 253.488 361.211 252.677 360.528C251.909 359.803 251.29 359.077 250.821 358.352H249.669V374.8H241.605ZM258.245 355.856C260.762 355.856 262.832 355.067 264.453 353.488C266.117 351.867 266.949 349.52 266.949 346.448V345.808C266.949 342.736 266.117 340.411 264.453 338.832C262.789 337.211 260.72 336.4 258.245 336.4C255.77 336.4 253.701 337.211 252.037 338.832C250.373 340.411 249.541 342.736 249.541 345.808V346.448C249.541 349.52 250.373 351.867 252.037 353.488C253.701 355.067 255.77 355.856 258.245 355.856ZM296.882 362.896C293.724 362.896 290.93 362.235 288.498 360.912C286.108 359.547 284.231 357.648 282.866 355.216C281.543 352.741 280.882 349.84 280.882 346.512V345.744C280.882 342.416 281.543 339.536 282.866 337.104C284.188 334.629 286.044 332.731 288.434 331.408C290.823 330.043 293.596 329.36 296.753 329.36C299.868 329.36 302.578 330.064 304.882 331.472C307.186 332.837 308.978 334.757 310.257 337.232C311.538 339.664 312.178 342.501 312.178 345.744V348.496H289.074C289.159 350.672 289.97 352.443 291.506 353.808C293.042 355.173 294.919 355.856 297.138 355.856C299.399 355.856 301.063 355.365 302.13 354.384C303.196 353.403 304.007 352.315 304.562 351.12L311.154 354.576C310.556 355.685 309.682 356.901 308.53 358.224C307.42 359.504 305.927 360.613 304.05 361.552C302.172 362.448 299.783 362.896 296.882 362.896ZM289.138 342.48H303.986C303.815 340.645 303.068 339.173 301.746 338.064C300.466 336.955 298.78 336.4 296.69 336.4C294.514 336.4 292.786 336.955 291.506 338.064C290.226 339.173 289.436 340.645 289.138 342.48ZM319.355 362V330.256H327.291V333.84H328.443C328.912 332.56 329.68 331.621 330.747 331.024C331.856 330.427 333.136 330.128 334.587 330.128H338.427V337.296H334.459C332.411 337.296 330.726 337.851 329.403 338.96C328.08 340.027 327.419 341.691 327.419 343.952V362H319.355ZM344.661 362.896C342.954 362.896 341.504 362.341 340.309 361.232C339.157 360.08 338.581 358.608 338.581 356.816C338.581 355.024 339.157 353.573 340.309 352.464C341.504 351.312 342.954 350.736 344.661 350.736C346.41 350.736 347.861 351.312 349.013 352.464C350.165 353.573 350.741 355.024 350.741 356.816C350.741 358.608 350.165 360.08 349.013 361.232C347.861 362.341 346.41 362.896 344.661 362.896Z" fill="white"/>
</svg>
